<?xml version="1.0" encoding="UTF-8" standalone="no"?>
<!-- Created with Inkscape (http://www.inkscape.org/) -->

<svg
   width="640mm"
   height="640mm"
   viewBox="0 0 640 640"
   version="1.1"
   id="svg1"
   inkscape:version="1.3 (0e150ed6c4, 2023-07-21)"
   sodipodi:docname="wdji3hdiud3.svg"
   inkscape:export-filename="logo.png"
   inkscape:export-xdpi="96"
   inkscape:export-ydpi="96"
   xmlns:inkscape="http://www.inkscape.org/namespaces/inkscape"
   xmlns:sodipodi="http://sodipodi.sourceforge.net/DTD/sodipodi-0.dtd"
   xmlns="http://www.w3.org/2000/svg"
   xmlns:svg="http://www.w3.org/2000/svg">
  <sodipodi:namedview
     id="namedview1"
     pagecolor="#ffffff"
     bordercolor="#000000"
     borderopacity="0.25"
     inkscape:showpageshadow="2"
     inkscape:pageopacity="0.0"
     inkscape:pagecheckerboard="0"
     inkscape:deskcolor="#d1d1d1"
     inkscape:document-units="mm"
     inkscape:zoom="0.32917017"
     inkscape:cx="1032.9004"
     inkscape:cy="1441.5036"
     inkscape:window-width="1920"
     inkscape:window-height="974"
     inkscape:window-x="-11"
     inkscape:window-y="-11"
     inkscape:window-maximized="1"
     inkscape:current-layer="layer1"
     showguides="false" />
  <defs
     id="defs1" />
  <g
     inkscape:label="Layer 1"
     inkscape:groupmode="layer"
     id="layer1">
    <rect
       style="opacity:1;fill:#2d2178;fill-opacity:1;stroke-width:0"
       id="rect67"
       width="241.67952"
       height="323.20996"
       x="44.919678"
       y="164.46274"
       ry="10.498187"
       transform="rotate(-3.9803837)" />
    <rect
       style="opacity:1;fill:#f9f9f9;fill-opacity:1;stroke-width:0"
       id="rect68"
       width="134.67084"
       height="28.390066"
       x="101.09671"
       y="151.31544"
       ry="9.3994074"
       transform="rotate(-3.9803837)" />
    <rect
       style="opacity:1;fill:#f0f0f0;fill-opacity:1;stroke-width:0"
       id="rect72"
       width="217.65715"
       height="298.09567"
       x="57.934494"
       y="173.92603"
       ry="4.7745914"
       transform="rotate(-3.9803837)" />
    <rect
       style="opacity:1;fill:#d9d9d9;fill-opacity:1;stroke-width:0"
       id="rect69"
       width="134.67084"
       height="28.390066"
       x="101.09671"
       y="151.31544"
       ry="4.8497176"
       transform="rotate(-3.9803837)" />
    <path
       id="path71"
       style="opacity:1;fill:#aaaaaa;fill-opacity:1;stroke-width:0"
       d="m 178.91968,123.24219 a 9.5537806,9.5081262 86.019616 0 0 -8.92545,10.01131 l 9.49611,-0.47492 9.48511,-0.65997 a 9.5537806,9.5081262 86.019616 0 0 -10.0558,-8.87639 z m 0.19035,0.94381 a 4.8445756,5.9366043 86.019616 0 1 6.20126,4.42503 l -5.9219,0.41208 -5.92748,0.31759 a 4.8445756,5.9366043 86.019616 0 1 5.64812,-5.15475 z" />
    <rect
       style="opacity:1;fill:#bebebe;fill-opacity:1;stroke-width:0"
       id="rect70"
       width="104.14944"
       height="21.955832"
       x="115.7668"
       y="141.79282"
       ry="6.1772261"
       transform="rotate(-3.9803837)" />
    <rect
       style="fill:#ffcf74;fill-opacity:1;stroke-width:0"
       id="rect2"
       width="172.53603"
       height="106.63312"
       x="223.32808"
       y="360.66534"
       ry="0.16455729" />
    <rect
       style="fill:#ffd380;fill-opacity:1;stroke-width:0"
       id="rect1"
       width="172.53603"
       height="106.63312"
       x="201.60651"
       y="378.10834"
       ry="0.16455729" />
    <path
       style="fill:#ffc14c;fill-opacity:1;stroke-width:0"
       d="m 374.01911,378.01162 21.41017,-17.22121 V 467.8412 l -21.64293,17.22121 z"
       id="path2" />
    <path
       style="fill:#ffcf74;fill-opacity:1;stroke-width:0"
       d="m 395.89468,361.02312 -172.21219,-0.46541 -21.87561,17.6866 172.21223,-0.23273 z"
       id="path3" />
    <path
       style="fill:#e3e3e3;fill-opacity:1;stroke-width:0"
       d="m 275.6687,484.70668 -0.57595,-106.46859 17.3608,-17.44304 h 10.03803 l -16.56386,17.49248 0.14912,106.25459 z"
       id="path4"
       sodipodi:nodetypes="ccccccc" />
    <rect
       style="fill:#f9f9f9;fill-opacity:1;stroke-width:0"
       id="rect4"
       width="62.834167"
       height="31.417084"
       x="299.78165"
       y="387.78592"
       ry="0.16455729" />
    <rect
       style="fill:#c8c8c8;fill-opacity:1;stroke-width:0"
       id="rect5"
       width="52.943604"
       height="5.7016191"
       x="304.6106"
       y="391.62576"
       ry="0.16455729" />
    <rect
       style="fill:#e6e6e6;fill-opacity:1;stroke-width:0"
       id="rect6"
       width="53.990837"
       height="3.3744273"
       x="303.97061"
       y="400.23639"
       ry="0.16455729" />
    <rect
       style="fill:#e6e6e6;fill-opacity:1;stroke-width:0"
       id="rect7"
       width="53.990837"
       height="3.3744273"
       x="303.97061"
       y="406.17072"
       ry="0.16455729" />
    <rect
       style="fill:#e6e6e6;fill-opacity:1;stroke-width:0"
       id="rect8"
       width="53.990837"
       height="3.3744273"
       x="304.20331"
       y="412.10501"
       ry="0.16455729" />
    <circle
       style="fill:#ffc14d;fill-opacity:1;stroke-width:0"
       id="path9"
       cx="260.10907"
       cy="397.09464"
       r="4.6543827" />
    <circle
       style="fill:#ffc14d;fill-opacity:1;stroke-width:0"
       id="circle9"
       cx="252.19666"
       cy="411.52322"
       r="7.4470134" />
    <circle
       style="fill:#ffc14d;fill-opacity:1;stroke-width:0"
       id="circle10"
       cx="-350.74707"
       cy="455.04175"
       r="4.6543827"
       transform="scale(-1,1)" />
    <circle
       style="fill:#ffc14d;fill-opacity:1;stroke-width:0"
       id="circle11"
       cx="-358.65958"
       cy="469.47034"
       r="7.4470134"
       transform="scale(-1,1)" />
    <rect
       style="fill:#ffcf74;fill-opacity:1;stroke-width:0"
       id="rect11"
       width="172.53603"
       height="106.63312"
       x="223.32808"
       y="360.66534"
       ry="0.16455729" />
    <rect
       style="fill:#ffd380;fill-opacity:1;stroke-width:0"
       id="rect12"
       width="172.53603"
       height="106.63312"
       x="201.60651"
       y="378.10834"
       ry="0.16455729" />
    <path
       style="fill:#ffc14c;fill-opacity:1;stroke-width:0"
       d="m 374.01911,378.01162 21.41017,-17.22121 V 467.8412 l -21.64293,17.22121 z"
       id="path12" />
    <path
       style="fill:#ffcf74;fill-opacity:1;stroke-width:0"
       d="m 395.89468,361.02312 -172.21219,-0.46541 -21.87561,17.6866 172.21223,-0.23273 z"
       id="path13" />
    <path
       style="fill:#fcfb00;fill-opacity:1;stroke-width:0"
       d="m 275.6687,484.70668 -0.57595,-106.46859 17.3608,-17.44304 h 10.03803 l -16.56386,17.49248 0.14912,106.25459 z"
       id="path15"
       sodipodi:nodetypes="ccccccc" />
    <rect
       style="fill:#f9f9f9;fill-opacity:1;stroke-width:0"
       id="rect15"
       width="62.834167"
       height="31.417084"
       x="299.78165"
       y="387.78592"
       ry="0.16455729" />
    <rect
       style="fill:#c8c8c8;fill-opacity:1;stroke-width:0"
       id="rect16"
       width="52.943604"
       height="5.7016191"
       x="304.6106"
       y="391.62576"
       ry="0.16455729" />
    <rect
       style="fill:#e6e6e6;fill-opacity:1;stroke-width:0"
       id="rect17"
       width="53.990837"
       height="3.3744273"
       x="303.97061"
       y="400.23639"
       ry="0.16455729" />
    <rect
       style="fill:#e6e6e6;fill-opacity:1;stroke-width:0"
       id="rect18"
       width="53.990837"
       height="3.3744273"
       x="303.97061"
       y="406.17072"
       ry="0.16455729" />
    <rect
       style="fill:#e6e6e6;fill-opacity:1;stroke-width:0"
       id="rect19"
       width="53.990837"
       height="3.3744273"
       x="304.20331"
       y="412.10501"
       ry="0.16455729" />
    <circle
       style="fill:#ffc14d;fill-opacity:1;stroke-width:0"
       id="circle19"
       cx="260.10907"
       cy="397.09464"
       r="4.6543827" />
    <circle
       style="fill:#ffc14d;fill-opacity:1;stroke-width:0"
       id="circle20"
       cx="252.19666"
       cy="411.52322"
       r="7.4470134" />
    <circle
       style="fill:#ffc14d;fill-opacity:1;stroke-width:0"
       id="circle21"
       cx="-350.74707"
       cy="455.04175"
       r="4.6543827"
       transform="scale(-1,1)" />
    <circle
       style="fill:#ffc14d;fill-opacity:1;stroke-width:0"
       id="circle22"
       cx="-358.65958"
       cy="469.47034"
       r="7.4470134"
       transform="scale(-1,1)" />
    <path
       id="path45"
       style="opacity:0.182773;fill:#000000;fill-opacity:1;stroke-width:0"
       d="m 553.84735,481.17491 c 0.0578,0 0.10433,0.0199 0.10433,0.0396 v 1.8184 H 444.48124 v -1.8184 c 0,-0.0238 0.0463,-0.0396 0.10421,-0.0396 z" />
    <rect
       style="fill:#ffcf74;fill-opacity:1;stroke-width:0"
       id="rect45"
       width="172.53603"
       height="106.63312"
       x="403.49329"
       y="358.07733"
       ry="0.16455729" />
    <rect
       style="fill:#ffd380;fill-opacity:1;stroke-width:0"
       id="rect46"
       width="172.53603"
       height="106.63312"
       x="381.77179"
       y="375.52045"
       ry="0.16455729" />
    <path
       style="fill:#ffc14c;fill-opacity:1;stroke-width:0"
       d="m 554.18429,375.42369 21.41017,-17.22123 v 107.05083 l -21.64287,17.22116 z"
       id="path46" />
    <path
       style="fill:#ffcf74;fill-opacity:1;stroke-width:0"
       d="m 576.05988,358.43519 -172.21217,-0.46544 -21.87561,17.68664 172.21219,-0.23274 z"
       id="path47" />
    <path
       id="path48"
       style="fill:#ffc14d;fill-opacity:1;stroke-width:0"
       d="m 394.88429,365.2169 -1.72744,1.39646 h 172.37244 l 1.79762,-1.39646 z" />
    <path
       style="fill:#e3e3e3;fill-opacity:1;stroke-width:0"
       d="m 455.83391,482.11872 -0.57594,-106.46854 17.36081,-17.44309 h 10.03796 l -16.56377,17.49253 0.14908,106.25455 z"
       id="path49"
       sodipodi:nodetypes="ccccccc" />
    <rect
       style="fill:#f9f9f9;fill-opacity:1;stroke-width:0"
       id="rect49"
       width="62.834167"
       height="31.417084"
       x="479.94681"
       y="385.198"
       ry="0.16455729" />
    <rect
       style="fill:#c8c8c8;fill-opacity:1;stroke-width:0"
       id="rect50"
       width="52.943604"
       height="5.7016191"
       x="484.7757"
       y="389.03781"
       ry="0.16455729" />
    <rect
       style="fill:#e6e6e6;fill-opacity:1;stroke-width:0"
       id="rect51"
       width="53.990837"
       height="3.3744273"
       x="484.13574"
       y="397.64847"
       ry="0.16455729" />
    <rect
       style="fill:#e6e6e6;fill-opacity:1;stroke-width:0"
       id="rect52"
       width="53.990837"
       height="3.3744273"
       x="484.13574"
       y="403.58273"
       ry="0.16455729" />
    <rect
       style="fill:#e6e6e6;fill-opacity:1;stroke-width:0"
       id="rect53"
       width="53.990837"
       height="3.3744273"
       x="484.36853"
       y="409.51712"
       ry="0.16455729" />
    <circle
       style="fill:#ffc14d;fill-opacity:1;stroke-width:0"
       id="circle53"
       cx="402.45132"
       cy="394.50671"
       r="4.6543827" />
    <circle
       style="fill:#ffc14d;fill-opacity:1;stroke-width:0"
       id="circle54"
       cx="394.53894"
       cy="408.9353"
       r="7.4470134" />
    <circle
       style="fill:#ffc14d;fill-opacity:1;stroke-width:0"
       id="circle55"
       cx="-530.91235"
       cy="452.45386"
       r="4.6543827"
       transform="scale(-1,1)" />
    <circle
       style="fill:#ffc14d;fill-opacity:1;stroke-width:0"
       id="circle56"
       cx="-538.82471"
       cy="466.88239"
       r="7.4470134"
       transform="scale(-1,1)" />
    <rect
       style="fill:#ffcf74;fill-opacity:1;stroke-width:0"
       id="rect56"
       width="172.53603"
       height="106.63312"
       x="403.49329"
       y="358.07733"
       ry="0.16455729" />
    <rect
       style="fill:#ffd380;fill-opacity:1;stroke-width:0"
       id="rect57"
       width="172.53603"
       height="106.63312"
       x="381.77179"
       y="375.52045"
       ry="0.16455729" />
    <path
       style="fill:#ffc14c;fill-opacity:1;stroke-width:0"
       d="m 554.18429,375.42369 21.41017,-17.22123 v 107.05083 l -21.64287,17.22116 z"
       id="path57" />
    <path
       style="fill:#ffcf74;fill-opacity:1;stroke-width:0"
       d="m 576.05988,358.43519 -172.21217,-0.46544 -21.87561,17.68664 172.21219,-0.23274 z"
       id="path58" />
    <path
       id="path59"
       style="fill:#ffc14d;fill-opacity:1;stroke-width:0"
       d="m 394.88429,365.2169 -1.72744,1.39646 h 172.37244 l 1.79762,-1.39646 z" />
    <path
       style="fill:#ff3e3e;fill-opacity:1;stroke-width:0"
       d="m 455.83391,482.11872 -0.57594,-106.46854 17.36081,-17.44309 h 10.03796 l -16.56377,17.49253 0.14908,106.25455 z"
       id="path60"
       sodipodi:nodetypes="ccccccc" />
    <rect
       style="fill:#f9f9f9;fill-opacity:1;stroke-width:0"
       id="rect60"
       width="62.834167"
       height="31.417084"
       x="479.94681"
       y="385.198"
       ry="0.16455729" />
    <rect
       style="fill:#c8c8c8;fill-opacity:1;stroke-width:0"
       id="rect61"
       width="52.943604"
       height="5.7016191"
       x="484.7757"
       y="389.03781"
       ry="0.16455729" />
    <rect
       style="fill:#e6e6e6;fill-opacity:1;stroke-width:0"
       id="rect62"
       width="53.990837"
       height="3.3744273"
       x="484.13574"
       y="397.64847"
       ry="0.16455729" />
    <rect
       style="fill:#e6e6e6;fill-opacity:1;stroke-width:0"
       id="rect63"
       width="53.990837"
       height="3.3744273"
       x="484.13574"
       y="403.58273"
       ry="0.16455729" />
    <rect
       style="fill:#e6e6e6;fill-opacity:1;stroke-width:0"
       id="rect64"
       width="53.990837"
       height="3.3744273"
       x="484.36853"
       y="409.51712"
       ry="0.16455729" />
    <circle
       style="fill:#ffc14d;fill-opacity:1;stroke-width:0"
       id="circle64"
       cx="402.45132"
       cy="394.50671"
       r="4.6543827" />
    <circle
       style="fill:#ffc14d;fill-opacity:1;stroke-width:0"
       id="circle65"
       cx="394.53894"
       cy="408.9353"
       r="7.4470134" />
    <circle
       style="fill:#ffc14d;fill-opacity:1;stroke-width:0"
       id="circle66"
       cx="-530.91235"
       cy="452.45386"
       r="4.6543827"
       transform="scale(-1,1)" />
    <circle
       style="fill:#ffc14d;fill-opacity:1;stroke-width:0"
       id="circle67"
       cx="-538.82471"
       cy="466.88239"
       r="7.4470134"
       transform="scale(-1,1)" />
    <path
       id="rect22"
       style="opacity:0.182773;fill:#000000;fill-opacity:1;stroke-width:0"
       d="m 340.43598,371.8045 c -0.0809,0 -0.14512,0.0199 -0.14512,0.0357 v 1.81837 h 152.68655 v -1.81837 c 0,-0.0238 -0.065,-0.0357 -0.14512,-0.0357 z" />
    <rect
       style="fill:#ffcf74;fill-opacity:1;stroke-width:0"
       id="rect23"
       width="172.53603"
       height="106.63312"
       x="-471.4332"
       y="248.70699"
       ry="0.16455729"
       transform="scale(-1,1)" />
    <rect
       style="fill:#ffd380;fill-opacity:1;stroke-width:0"
       id="rect24"
       width="172.53603"
       height="106.63312"
       x="-493.15475"
       y="266.15002"
       ry="0.16455729"
       transform="scale(-1,1)" />
    <path
       style="fill:#ffc14c;fill-opacity:1;stroke-width:0"
       d="m 320.7422,266.05329 -21.41016,-17.22121 v 107.0508 l 21.64289,17.22121 z"
       id="path24" />
    <path
       style="fill:#ffcf74;fill-opacity:1;stroke-width:0"
       d="m 298.8666,249.06478 172.21224,-0.4654 21.87556,17.68662 -172.2122,-0.23275 z"
       id="path25" />
    <path
       id="path26"
       style="fill:#ffc14d;fill-opacity:1;stroke-width:0"
       d="m 480.04222,255.8465 1.72745,1.39649 H 309.39726 l -1.79771,-1.39649 z" />
    <path
       style="fill:#e3e3e3;fill-opacity:1;stroke-width:0"
       d="m 419.09258,372.74835 0.57596,-106.46858 -17.36081,-17.44304 h -10.038 l 16.56385,17.49248 -0.14908,106.25456 z"
       id="path27"
       sodipodi:nodetypes="ccccccc" />
    <rect
       style="fill:#f9f9f9;fill-opacity:1;stroke-width:0"
       id="rect27"
       width="62.834167"
       height="31.417084"
       x="424.80087"
       y="275.82761"
       ry="0.16455729" />
    <rect
       style="fill:#e6e6e6;fill-opacity:1;stroke-width:0"
       id="rect29"
       width="53.990837"
       height="3.3744273"
       x="428.98962"
       y="288.27811"
       ry="0.16455729" />
    <rect
       style="fill:#e6e6e6;fill-opacity:1;stroke-width:0"
       id="rect30"
       width="53.990837"
       height="3.3744273"
       x="428.98962"
       y="294.21246"
       ry="0.16455729" />
    <rect
       style="fill:#e6e6e6;fill-opacity:1;stroke-width:0"
       id="rect31"
       width="53.990837"
       height="3.3744273"
       x="429.22244"
       y="300.14673"
       ry="0.16455729" />
    <circle
       style="fill:#ffc14d;fill-opacity:1;stroke-width:0"
       id="circle31"
       cx="-472.47507"
       cy="285.13635"
       r="4.6543827"
       transform="scale(-1,1)" />
    <circle
       style="fill:#ffc14d;fill-opacity:1;stroke-width:0"
       id="circle32"
       cx="-480.38754"
       cy="299.56497"
       r="7.4470134"
       transform="scale(-1,1)" />
    <circle
       style="fill:#ffc14d;fill-opacity:1;stroke-width:0"
       id="circle33"
       cx="344.01413"
       cy="343.0835"
       r="4.6543827" />
    <circle
       style="fill:#ffc14d;fill-opacity:1;stroke-width:0"
       id="circle34"
       cx="336.10162"
       cy="357.51208"
       r="7.4470134" />
    <rect
       style="fill:#ffcf74;fill-opacity:1;stroke-width:0"
       id="rect34"
       width="172.53603"
       height="106.63312"
       x="-471.4332"
       y="248.70699"
       ry="0.16455729"
       transform="scale(-1,1)" />
    <rect
       style="fill:#ffd380;fill-opacity:1;stroke-width:0"
       id="rect35"
       width="172.53603"
       height="106.63312"
       x="-493.15475"
       y="266.15002"
       ry="0.16455729"
       transform="scale(-1,1)" />
    <path
       style="fill:#ffc14c;fill-opacity:1;stroke-width:0"
       d="m 320.7422,266.05329 -21.41016,-17.22121 v 107.0508 l 21.64289,17.22121 z"
       id="path35" />
    <path
       style="fill:#ffcf74;fill-opacity:1;stroke-width:0"
       d="m 298.8666,249.06478 172.21224,-0.4654 21.87556,17.68662 -172.2122,-0.23275 z"
       id="path36" />
    <path
       id="path37"
       style="fill:#ffc14d;fill-opacity:1;stroke-width:0"
       d="m 480.04222,255.8465 1.72745,1.39649 H 309.39726 l -1.79771,-1.39649 z" />
    <path
       style="fill:#8972ff;fill-opacity:1;stroke-width:0"
       d="m 419.09258,372.74835 0.57596,-106.46858 -17.36081,-17.44304 h -10.038 l 16.56385,17.49248 -0.14908,106.25456 z"
       id="path38"
       sodipodi:nodetypes="ccccccc" />
    <rect
       style="fill:#f9f9f9;fill-opacity:1;stroke-width:0"
       id="rect38"
       width="62.834167"
       height="31.417084"
       x="424.80087"
       y="275.82761"
       ry="0.16455729" />
    <rect
       style="fill:#e6e6e6;fill-opacity:1;stroke-width:0"
       id="rect40"
       width="53.990837"
       height="3.3744273"
       x="428.98962"
       y="288.27811"
       ry="0.16455729" />
    <rect
       style="fill:#e6e6e6;fill-opacity:1;stroke-width:0"
       id="rect41"
       width="53.990837"
       height="3.3744273"
       x="428.98962"
       y="294.21246"
       ry="0.16455729" />
    <rect
       style="fill:#e6e6e6;fill-opacity:1;stroke-width:0"
       id="rect42"
       width="53.990837"
       height="3.3744273"
       x="429.22244"
       y="300.14673"
       ry="0.16455729" />
    <circle
       style="fill:#ffc14d;fill-opacity:1;stroke-width:0"
       id="circle42"
       cx="347.30527"
       cy="285.13635"
       r="4.6543827" />
    <circle
       style="fill:#ffc14d;fill-opacity:1;stroke-width:0"
       id="circle43"
       cx="339.39279"
       cy="299.56497"
       r="7.4470134" />
    <circle
       style="fill:#ffc14d;fill-opacity:1;stroke-width:0"
       id="circle44"
       cx="-475.76624"
       cy="343.0835"
       r="4.6543827"
       transform="scale(-1,1)" />
    <circle
       style="fill:#ffc14d;fill-opacity:1;stroke-width:0"
       id="circle45"
       cx="-483.67871"
       cy="357.51208"
       r="7.4470134"
       transform="scale(-1,1)" />
    <rect
       style="fill:#e6e6e6;stroke-width:0"
       id="rect13"
       width="32.084858"
       height="32.084858"
       x="68.194855"
       y="205.57309"
       ry="2.3949425"
       transform="rotate(-6.522364)" />
    <path
       style="fill:#fbff44;fill-opacity:1;stroke-width:0"
       d="m 97.619943,198.98112 c 0,0 7.553167,5.06133 9.746327,7.66926 2.19316,2.60795 3.81611,7.08024 3.81611,7.08024 0,0 13.20716,-19.81907 19.00142,-25.77429 5.79425,-5.95523 14.05792,-10.97068 14.05792,-10.97068 l 3.97041,3.73379 c 0,0 -6.96014,4.129 -13.54431,10.95493 -6.5842,6.82592 -23.7073,31.57385 -23.7073,31.57385 0,0 -5.7493,-10.15742 -8.89258,-13.35055 -3.143291,-3.19312 -8.928592,-6.15208 -8.928592,-6.15208 z"
       id="path14"
       sodipodi:nodetypes="czczcczczcc" />
    <rect
       style="fill:#e6e6e6;stroke-width:0"
       id="rect14"
       width="32.084858"
       height="32.084858"
       x="67.939949"
       y="254.82355"
       ry="2.3949425"
       transform="rotate(-6.522364)" />
    <path
       style="fill:#fbff44;fill-opacity:1;stroke-width:0"
       d="m 102.9611,247.94184 c 0,0 7.55318,5.06133 9.74634,7.66927 2.19316,2.60794 3.8161,7.08023 3.8161,7.08023 0,0 13.20717,-19.81912 19.00143,-25.7743 5.79424,-5.95521 14.05792,-10.9707 14.05792,-10.9707 l 3.97039,3.73381 c 0,0 -6.96012,4.12897 -13.54431,10.95494 -6.58417,6.82592 -23.70729,31.57385 -23.70729,31.57385 0,0 -5.74929,-10.15742 -8.89258,-13.35055 -3.14328,-3.19316 -8.92859,-6.15208 -8.92859,-6.15208 z"
       id="path16"
       sodipodi:nodetypes="czczcczczcc" />
    <rect
       style="fill:#e6e6e6;stroke-width:0"
       id="rect20"
       width="32.084858"
       height="32.084858"
       x="65.840004"
       y="312.37506"
       ry="2.3949425"
       transform="rotate(-6.522364)" />
    <path
       style="fill:#fbff44;fill-opacity:1;stroke-width:0"
       d="m 107.41208,305.35938 c 0,0 7.55318,5.06133 9.74633,7.66926 2.19317,2.60796 3.8161,7.08024 3.8161,7.08024 0,0 13.20717,-19.81907 19.00143,-25.77429 5.79425,-5.95523 14.05792,-10.97072 14.05792,-10.97072 l 3.97039,3.73383 c 0,0 -6.96012,4.129 -13.54431,10.95493 -6.58417,6.82591 -23.70728,31.57385 -23.70728,31.57385 0,0 -5.7493,-10.15742 -8.89258,-13.35054 -3.14329,-3.19313 -8.9286,-6.15209 -8.9286,-6.15209 z"
       id="path20"
       sodipodi:nodetypes="czczcczczcc" />
    <rect
       style="fill:#e6e6e6;stroke-width:0"
       id="rect21"
       width="32.084858"
       height="32.084858"
       x="63.322739"
       y="377.49481"
       ry="2.3949425"
       transform="rotate(-6.522364)" />
    <path
       style="fill:#fbff44;fill-opacity:1;stroke-width:0"
       d="m 112.30815,370.34358 c 0,0 7.55319,5.06137 9.74633,7.66931 2.19318,2.6079 3.8161,7.0802 3.8161,7.0802 0,0 13.20717,-19.81908 19.00143,-25.77431 5.79425,-5.95521 14.05792,-10.97067 14.05792,-10.97067 l 3.97039,3.73382 c 0,0 -6.96011,4.12897 -13.54431,10.95489 -6.58419,6.82594 -23.70729,31.57389 -23.70729,31.57389 0,0 -5.74928,-10.15744 -8.89257,-13.35054 -3.14328,-3.19316 -8.9286,-6.15213 -8.9286,-6.15213 z"
       id="path21"
       sodipodi:nodetypes="czczcczczcc" />
    <rect
       style="fill:#e6e6e6;fill-opacity:1;stroke-width:0"
       id="rect25"
       width="138.87035"
       height="10.682333"
       x="127.36186"
       y="211.48103"
       ry="5.3411665"
       transform="rotate(-4.0416598)" />
    <rect
       style="fill:#e6e6e6;fill-opacity:1;stroke-width:0"
       id="rect26"
       width="138.87035"
       height="10.682333"
       x="127.81284"
       y="261.93433"
       ry="5.3411665"
       transform="rotate(-4.0416598)" />
    <rect
       style="fill:#e6e6e6;fill-opacity:1;stroke-width:0"
       id="rect32"
       width="138.87035"
       height="10.682333"
       x="128.29997"
       y="318.1908"
       ry="5.3411665"
       transform="rotate(-4.0416598)" />
    <rect
       style="fill:#c87137;stroke-width:0"
       id="rect3"
       width="210.02386"
       height="129.80188"
       x="438.65448"
       y="349.4277"
       ry="6.8342872"
       transform="rotate(5.0858079)" />
    <rect
       style="fill:#008000;stroke-width:0"
       id="rect10"
       width="188.52144"
       height="108.88519"
       x="450.28256"
       y="360.24454"
       ry="4.7959204"
       transform="rotate(5.0858079)" />
    <text
       xml:space="preserve"
       style="font-style:normal;font-variant:normal;font-weight:normal;font-stretch:normal;font-size:35.7672px;font-family:'Tekton Pro';-inkscape-font-specification:'Tekton Pro';fill:#e6e6e6;fill-opacity:1;stroke-width:0"
       x="493.68515"
       y="422.06113"
       id="text32"
       transform="rotate(5.0858079)"><tspan
         sodipodi:role="line"
         id="tspan32"
         style="font-style:normal;font-variant:normal;font-weight:normal;font-stretch:normal;font-family:'Tekton Pro';-inkscape-font-specification:'Tekton Pro';stroke-width:0"
         x="493.68515"
         y="422.06113">e = mc²</tspan></text>
  </g>
</svg>
